<svg width="22" height="22" viewBox="0 0 22 22" fill="none" xmlns="http://www.w3.org/2000/svg">
<path d="M18.6878 11V9.03579C18.6878 7.99391 18.7152 7.26782 18.6878 5.50003C17.5611 5.50005 18.1381 5.50004 14.6759 5.50004L11.7907 5.50001L9.48249 5.50001C8.3284 5.5 4.06947 5.49999 3.30003 5.50001C3.29997 6.87518 3.29999 8.19036 3.29999 9.23224L3.30004 11" stroke="white" stroke-linecap="round" stroke-linejoin="round"/>
<path d="M3.31215 11V12.9642C3.31215 14.0061 3.28482 14.7322 3.31215 16.5C4.43891 16.5 3.86186 16.5 7.32412 16.5L10.2093 16.5L12.5175 16.5C13.6716 16.5 17.9305 16.5 18.7 16.5C18.7 15.1248 18.7 13.8097 18.7 12.7678L18.6999 11" stroke="white" stroke-linecap="round" stroke-linejoin="round"/>
<path d="M3.29999 5.5L10.8785 10.9132M11.2695 10.6426L10.8785 10.9132M18.7 5.5L10.8785 10.9132" stroke="white"/>
</svg>
